<?xml version="1.0" encoding="UTF-8" standalone="no"?>
<svg
   width="20"
   height="20"
   viewBox="0 0 20 20"
   fill="none"
   version="1.1"
   id="svg1"
   sodipodi:docname="dropdown-button-iconn.svg"
   inkscape:version="1.4.2 (f4327f4, 2025-05-13)"
   xmlns:inkscape="http://www.inkscape.org/namespaces/inkscape"
   xmlns:sodipodi="http://sodipodi.sourceforge.net/DTD/sodipodi-0.dtd"
   xmlns="http://www.w3.org/2000/svg"
   xmlns:svg="http://www.w3.org/2000/svg">
  <defs
     id="defs1" />
  <sodipodi:namedview
     id="namedview1"
     pagecolor="#ffffff"
     bordercolor="#000000"
     borderopacity="0.25"
     inkscape:showpageshadow="2"
     inkscape:pageopacity="0.0"
     inkscape:pagecheckerboard="0"
     inkscape:deskcolor="#d1d1d1"
     inkscape:zoom="42.55"
     inkscape:cx="10"
     inkscape:cy="10"
     inkscape:window-width="1920"
     inkscape:window-height="1111"
     inkscape:window-x="-9"
     inkscape:window-y="-9"
     inkscape:window-maximized="1"
     inkscape:current-layer="svg1" />
  <path
     d="M10 13.0004C9.72365 13.0008 9.46054 12.8821 9.27791 12.6747L5.18048 8.01721C4.91114 7.69622 4.9473 7.21891 5.26194 6.94217C5.57658 6.66543 6.0546 6.69048 6.33859 6.9986L9.92148 11.0714C9.94131 11.094 9.96992 11.107 10 11.107C10.0301 11.107 10.0587 11.094 10.0785 11.0714L13.6614 6.9986C13.9454 6.69048 14.4234 6.66543 14.7381 6.94217C15.0527 7.21891 15.0889 7.69622 14.8195 8.01721L10.7233 12.673C10.5404 12.8809 10.2769 13.0002 10 13.0004Z"
     fill="#A3B2BA"
     id="path1" />
  <path
     style="fill:#ffffff;stroke-width:0.0235018"
     d="M 9.7141333,12.941004 C 9.5415452,12.884024 9.4491699,12.825189 9.3144832,12.68646 8.9705894,12.332245 5.1283695,7.9307308 5.0832269,7.8392792 5.0402852,7.7522863 5.0302637,7.6922105 5.0300604,7.520564 5.0298428,7.3367238 5.0379902,7.2934956 5.0923284,7.1901848 5.1733402,7.036161 5.3027488,6.9116262 5.4640243,6.8324878 c 0.2577452,-0.1264765 0.61159,-0.067318 0.823517,0.1376807 0.045692,0.044198 0.8838128,0.9913869 1.8624911,2.1048639 0.9786785,1.1134766 1.7952896,2.0305946 1.8146915,2.0380406 0.019402,0.0074 0.051379,0.0074 0.07106,-1.95e-4 0.01968,-0.0076 0.840488,-0.929958 1.824016,-2.0497913 0.983527,-1.1198328 1.82142,-2.0663302 1.861983,-2.1033275 0.04056,-0.036997 0.131919,-0.09479 0.203011,-0.1284284 0.170435,-0.080643 0.426755,-0.085356 0.591673,-0.010879 0.147317,0.066528 0.315228,0.2253161 0.391413,0.3701438 0.05411,0.1028567 0.06228,0.1463007 0.06206,0.3299681 -2.04e-4,0.1723451 -0.01016,0.2316088 -0.05378,0.3200141 -0.05578,0.1130572 -3.992063,4.6112932 -4.267816,4.8770932 -0.186135,0.179417 -0.345013,0.246456 -0.613094,0.258694 -0.1390268,0.0063 -0.2226956,-0.0029 -0.3211198,-0.03536 z"
     id="path2" />
</svg>
